<?xml version="1.0" encoding="iso-8859-1"?>
<!-- Generator: Adobe Illustrator 19.0.0, SVG Export Plug-In . SVG Version: 6.00 Build 0)  -->
<svg version="1.1" id="Layer_1" xmlns="http://www.w3.org/2000/svg" xmlns:xlink="http://www.w3.org/1999/xlink" x="0px" y="0px"
	 viewBox="0 0 503.467 503.467" style="enable-background:new 0 0 503.467 503.467;" xml:space="preserve">
<g transform="translate(5 1)">
	<path style="fill:#FF7474;" d="M373.88,242.2v85.333h-256V242.2V37.4c0-18.773,15.36-34.133,34.133-34.133h187.733
		c18.773,0,34.133,15.36,34.133,34.133V242.2L373.88,242.2z"/>
	<polygon style="fill:#AAB1BA;" points="220.28,498.2 271.48,498.2 271.48,395.8 220.28,395.8 	"/>
	<polygon style="fill:#F2EDDA;" points="83.747,156.867 75.213,242.2 41.08,242.2 32.547,156.867 70.947,156.867 	"/>
	<path style="fill:#FF7474;" d="M373.88,327.533V242.2h85.333v119.467c0,18.773-15.36,34.133-34.133,34.133h-153.6h-51.2H66.68
		c-18.773,0-34.133-15.36-34.133-34.133V242.2h8.533h34.133h42.667v85.333H373.88z"/>
</g>
<path style="fill:#51565F;" d="M327.68,503.467h-153.6c-2.56,0-4.267-1.707-4.267-4.267c0-2.56,1.707-4.267,4.267-4.267h46.933v-64
	c0-2.56,1.707-4.267,4.267-4.267s4.267,1.707,4.267,4.267v64h42.667v-64c0-2.56,1.707-4.267,4.267-4.267s4.267,1.707,4.267,4.267v64
	h46.933c2.56,0,4.267,1.707,4.267,4.267C331.947,501.76,330.24,503.467,327.68,503.467z M430.08,401.067H71.68
	c-21.333,0-38.4-17.067-38.4-38.4V243.2c0-2.56,1.707-4.267,4.267-4.267h38.4l7.68-76.8h-7.68l0,0h-33.28l4.267,46.933
	c0,2.56-1.707,4.267-3.413,4.267c-2.56,0-4.267-1.707-4.267-3.413l-5.12-51.2c0-0.853,0-2.56,0.853-3.413
	c0.853-0.853,1.707-1.707,3.413-1.707h34.987l3.413-30.72c0-2.56,2.56-4.267,5.12-3.413c2.56,0,3.413,1.707,3.413,4.267
	c0,0,0,0,0,0.853L81.92,153.6h7.68c0.853,0,2.56,0.853,3.413,1.707c0.853,0.853,0.853,1.707,0.853,3.413l-8.533,85.333
	c0,0.853,0,0.853,0,0.853c0,0.853-0.853,0.853-0.853,1.707c-0.853,0.853-0.853,0.853-1.707,0.853H81.92h-38.4v115.2
	c0,16.213,13.653,29.867,29.867,29.867h358.4c16.213,0,29.867-13.653,29.867-29.867v-115.2H414.72c-2.56,0-4.267-1.707-4.267-4.267
	s1.707-4.267,4.267-4.267h51.2c2.56,0,4.267,1.707,4.267,4.267v119.467C468.48,384,451.413,401.067,430.08,401.067z M395.947,332.8
	H105.813c-2.56,0-4.267-1.707-4.267-4.267c0-2.56,1.707-4.267,4.267-4.267h12.8V38.4c0-21.333,17.067-38.4,38.4-38.4h187.733
	c21.333,0,38.4,17.067,38.4,38.4v285.867h12.8c2.56,0,4.267,1.707,4.267,4.267C400.213,331.093,398.507,332.8,395.947,332.8z
	 M127.147,324.267h247.467V38.4c0-16.213-13.653-29.867-29.867-29.867H157.013c-16.213,0-29.867,13.653-29.867,29.867V324.267z"/>
<g>
</g>
<g>
</g>
<g>
</g>
<g>
</g>
<g>
</g>
<g>
</g>
<g>
</g>
<g>
</g>
<g>
</g>
<g>
</g>
<g>
</g>
<g>
</g>
<g>
</g>
<g>
</g>
<g>
</g>
</svg>
