<?xml version="1.0" encoding="iso-8859-1"?>
<!-- Generator: Adobe Illustrator 19.0.0, SVG Export Plug-In . SVG Version: 6.00 Build 0)  -->
<svg version="1.1" id="Layer_1" xmlns="http://www.w3.org/2000/svg" xmlns:xlink="http://www.w3.org/1999/xlink" x="0px" y="0px"
	 viewBox="0 0 512 512" style="enable-background:new 0 0 512 512;" xml:space="preserve">
<polygon style="fill:#4F505E;" points="298.205,225.944 298.205,292.6 505.51,292.6 438.854,225.944 "/>
<path style="fill:#787A8F;" d="M438.854,225.943h-33.447c36.813,0,66.656,29.844,66.656,66.656l0,0h33.447l0,0
	C505.51,255.787,475.667,225.943,438.854,225.943z"/>
<path style="fill:#464754;" d="M150.9,0H87.038C42.553,0,6.49,36.062,6.49,80.548V292.6H150.9V0z"/>
<path style="fill:#585969;" d="M355.814,273.839h-57.609V512h183.238V399.468C481.444,330.085,425.197,273.839,355.814,273.839z"/>
<path style="fill:#6D6E82;" d="M355.814,273.839h-33.447c69.383,0,125.63,56.246,125.63,125.63V512h33.447V399.468
	C481.445,330.085,425.197,273.839,355.814,273.839z"/>
<path style="fill:#D7565A;" d="M237.062,0H131.635C87.15,0,51.087,36.062,51.087,103.257v212.052h266.523V80.548
	C317.61,36.062,281.547,0,237.062,0z"/>
<g>
	<path style="fill:#FF7374;" d="M237.062,0h-33.447c44.485,0,80.548,36.062,80.548,80.548V292.6h33.447V80.548
		C317.61,36.062,281.547,0,237.062,0z"/>
	<polygon style="fill:#FF7374;" points="336.798,326.091 132.751,326.091 132.751,359.583 132.751,512 415.68,512 415.68,359.583 	
		"/>
</g>
<polygon style="fill:#FF8F90;" points="336.798,326.091 303.35,326.091 382.233,359.583 382.233,512 415.68,512 415.68,359.583 "/>
<path style="fill:#FF6465;" d="M348.697,292.6H78.695v66.983h336.984l0,0C415.68,322.589,385.69,292.6,348.697,292.6z"/>
<path style="fill:#FF8080;" d="M348.697,292.6H315.25c36.994,0,66.983,29.989,66.983,66.983l0,0h33.447l0,0
	C415.68,322.589,385.69,292.6,348.697,292.6z"/>
<path style="fill:#585969;" d="M64.099,273.839H6.49V512h183.238V399.468C189.729,330.085,133.482,273.839,64.099,273.839z"/>
<path style="fill:#6D6E82;" d="M64.099,273.839H30.651c69.383,0,125.63,56.246,125.63,125.63V512h33.447V399.468
	C189.729,330.085,133.482,273.839,64.099,273.839z"/>
<polygon style="fill:#4F505E;" points="6.49,225.944 6.49,292.6 213.795,292.6 147.139,225.944 "/>
<path style="fill:#787A8F;" d="M147.139,225.943h-33.447c36.813,0,66.656,29.844,66.656,66.656l0,0h33.447l0,0
	C213.795,255.787,183.952,225.943,147.139,225.943z"/>
<g>
</g>
<g>
</g>
<g>
</g>
<g>
</g>
<g>
</g>
<g>
</g>
<g>
</g>
<g>
</g>
<g>
</g>
<g>
</g>
<g>
</g>
<g>
</g>
<g>
</g>
<g>
</g>
<g>
</g>
</svg>
